<?xml version="1.0" standalone="no"?>
<!DOCTYPE svg PUBLIC "-//W3C//DTD SVG 20010904//EN"
 "http://www.w3.org/TR/2001/REC-SVG-20010904/DTD/svg10.dtd">
<svg version="1.0" xmlns="http://www.w3.org/2000/svg"
 width="389.000000pt" height="389.000000pt" viewBox="0 0 389.000000 389.000000"
 preserveAspectRatio="xMidYMid meet">
<metadata>
Created by potrace 1.14, written by Peter Selinger 2001-2017
</metadata>
<g transform="translate(0.000000,389.000000) scale(0.100000,-0.100000)"
fill="#000000" stroke="none">
<path d="M1075 3588 c-100 -34 -513 -199 -615 -246 -36 -16 -89 -40 -118 -52
-108 -46 -99 -113 36 -264 39 -43 90 -114 114 -158 65 -120 87 -151 163 -230
61 -63 142 -171 159 -210 8 -21 73 59 112 137 42 87 62 188 65 330 5 310 77
547 190 622 79 52 186 33 230 -42 23 -38 32 -39 93 -8 26 14 28 18 22 55 -4
22 -13 53 -22 69 l-15 29 -162 -1 c-154 0 -167 -2 -252 -31z"/>
<path d="M2365 3586 c-8 -19 -15 -53 -15 -75 0 -36 3 -40 40 -55 l40 -16 48
49 c73 76 157 80 238 9 38 -34 105 -163 123 -239 22 -93 41 -251 41 -341 0
-124 15 -218 45 -303 25 -67 99 -186 120 -191 6 -2 29 27 53 64 24 37 75 101
113 142 80 85 111 127 159 220 39 75 72 121 152 207 59 65 82 116 76 168 -3
27 -13 35 -89 72 -106 52 -473 205 -646 270 l-128 47 -178 4 -177 4 -15 -36z"/>
<path d="M1221 3393 c-29 -36 -61 -106 -77 -170 -6 -23 2 -18 57 38 35 36 79
77 98 92 34 25 34 26 18 51 -25 38 -59 34 -96 -11z"/>
<path d="M1760 3419 c-274 -46 -491 -194 -599 -409 -38 -76 -51 -128 -70 -281
-6 -47 -18 -107 -27 -134 -16 -46 -16 -49 9 -124 43 -125 60 -218 61 -342 l1
-116 135 5 c117 4 147 2 225 -18 136 -34 285 -98 377 -162 37 -25 96 -23 138
6 95 63 240 125 368 156 80 20 112 22 225 18 l132 -5 1 101 c1 125 17 225 56
336 16 47 29 90 29 95 0 6 -9 41 -21 80 -11 38 -24 113 -29 166 -30 314 -262
545 -626 620 -97 20 -286 24 -385 8z m-214 -500 c42 -22 126 -99 159 -146 57
-82 112 -230 146 -392 32 -154 24 -193 -38 -193 -17 0 -35 9 -49 27 l-22 27
-42 -45 c-69 -75 -171 -92 -255 -42 -87 50 -126 177 -82 262 10 18 17 34 17
36 0 6 -55 18 -105 23 -68 7 -84 13 -101 39 -15 23 -15 27 0 50 9 14 56 43
110 69 52 25 97 50 101 55 3 6 -3 47 -15 92 -23 94 -25 140 -7 158 18 19 129
7 183 -20z m970 6 c15 -24 15 -31 -10 -126 -15 -56 -23 -105 -19 -110 4 -4 50
-28 100 -53 52 -26 100 -58 109 -71 15 -23 15 -27 0 -50 -17 -25 -30 -30 -101
-39 -46 -6 -105 -17 -105 -21 0 -1 7 -17 16 -35 37 -72 22 -171 -34 -233 -50
-56 -164 -76 -236 -42 -20 10 -52 35 -69 56 l-32 38 -27 -26 c-47 -45 -108
-28 -108 31 0 94 59 314 116 433 84 176 200 269 341 272 35 1 45 -3 59 -24z"/>
<path d="M1484 2803 c2 -10 12 -48 21 -85 20 -80 13 -97 -44 -123 -23 -10 -41
-21 -41 -24 0 -4 20 -13 45 -20 52 -15 185 -82 222 -111 14 -11 28 -18 31 -15
9 9 -31 131 -69 210 -39 80 -69 120 -123 163 -34 26 -49 28 -42 5z"/>
<path d="M1481 2384 c-11 -15 -21 -40 -21 -56 0 -41 48 -88 90 -88 36 0 90 46
90 77 0 12 -19 30 -52 50 -78 47 -83 48 -107 17z"/>
<path d="M2315 2768 c-41 -40 -65 -76 -98 -148 -39 -84 -73 -187 -65 -195 2
-2 37 18 79 44 42 26 109 58 148 71 39 14 71 27 71 31 0 4 -14 12 -30 19 -17
7 -39 23 -49 36 -17 22 -17 28 -5 81 26 106 27 113 15 113 -6 0 -36 -24 -66
-52z"/>
<path d="M2325 2389 c-61 -33 -95 -59 -95 -74 0 -7 13 -27 29 -44 37 -39 78
-41 120 -5 38 32 43 87 11 122 -12 12 -22 22 -23 22 -1 0 -20 -10 -42 -21z"/>
<path d="M2563 3418 c-23 -29 -18 -43 26 -78 25 -20 67 -60 94 -89 26 -29 47
-47 47 -40 0 18 -27 93 -47 133 -35 71 -94 107 -120 74z"/>
<path d="M1190 1901 c-146 -27 -343 -153 -456 -290 -30 -36 -54 -67 -54 -70 0
-4 42 -6 93 -6 106 0 147 -17 147 -60 0 -13 -24 -57 -53 -98 -54 -75 -93 -152
-103 -206 -6 -30 -6 -30 27 -21 79 20 139 22 164 6 29 -19 33 -60 9 -91 -19
-26 -54 -139 -54 -177 0 -25 3 -29 18 -23 92 38 209 20 227 -34 3 -11 -5 -45
-20 -80 -14 -33 -25 -79 -25 -103 l0 -42 33 32 c37 36 94 62 136 62 24 0 36 9
60 44 37 53 108 107 187 141 122 53 185 89 219 126 40 44 100 150 109 194 6
29 4 32 -56 59 -135 62 -228 161 -263 280 -19 64 -19 82 4 132 21 46 67 85
124 105 20 7 37 16 37 20 0 10 -153 67 -225 85 -76 17 -226 25 -285 15z"/>
<path d="M2441 1895 c-80 -15 -211 -59 -249 -83 -23 -15 -23 -15 24 -33 58
-22 110 -71 125 -117 41 -123 -86 -317 -255 -393 -71 -31 -76 -36 -71 -59 14
-57 69 -153 113 -198 44 -45 78 -65 214 -125 83 -37 144 -82 185 -136 32 -44
40 -49 85 -54 49 -6 101 -35 127 -71 14 -19 15 -19 21 0 9 24 -5 87 -31 142
-23 51 -18 77 19 96 57 29 107 29 198 1 21 -6 21 -5 12 50 -5 31 -22 86 -38
122 -36 78 -36 87 -9 114 18 18 28 20 82 14 33 -4 74 -11 90 -16 29 -8 29 -8
22 28 -11 59 -49 134 -103 205 -29 37 -52 76 -52 88 0 50 69 76 184 68 31 -1
56 0 56 4 0 13 -91 117 -144 164 -70 63 -197 140 -282 170 -85 31 -219 39
-323 19z"/>
<path d="M1773 1694 c-119 -26 -147 -56 -124 -134 14 -47 98 -142 157 -176 47
-28 130 -41 187 -30 103 19 241 167 235 250 -3 34 -8 43 -37 60 -75 43 -288
59 -418 30z"/>
<path d="M3062 779 l-672 -774 671 -3 c370 -1 674 -1 676 1 2 2 2 352 1 777
l-3 773 -673 -774z m441 -18 c105 -51 171 -158 171 -276 0 -120 -56 -210 -166
-265 -50 -24 -74 -30 -127 -30 -36 0 -87 7 -112 16 -45 16 -48 16 -122 -9 -54
-18 -77 -22 -77 -13 0 7 10 41 21 76 22 63 22 64 3 119 -25 74 -23 161 6 229
29 67 114 146 178 167 64 20 167 14 225 -14z"/>
<path d="M3300 725 c-139 -45 -209 -205 -150 -344 17 -38 19 -53 10 -75 -19
-51 -15 -57 29 -41 36 12 45 12 90 -6 128 -48 266 6 322 126 22 48 25 151 6
198 -49 116 -188 180 -307 142z m-4 -93 c6 -4 17 -24 24 -45 10 -33 10 -41 -5
-57 -16 -17 -14 -21 21 -60 54 -59 71 -66 99 -40 22 20 23 21 59 4 42 -21 48
-54 14 -78 -64 -45 -179 12 -253 124 -35 52 -37 108 -5 140 22 22 29 24 46 12z"/>
<path d="M1907 1036 c-43 -83 -130 -159 -234 -207 -144 -66 -173 -82 -214
-121 -49 -48 -65 -80 -73 -151 -5 -48 -4 -59 10 -64 10 -3 29 1 43 10 81 51
126 67 197 67 78 0 179 -26 229 -60 18 -12 47 -20 70 -20 23 0 52 8 70 20 50
34 151 60 229 60 71 0 116 -16 197 -67 15 -9 33 -13 44 -10 15 6 16 15 11 63
-13 120 -72 179 -268 263 -118 52 -199 121 -247 210 -18 34 -33 61 -34 61 -1
0 -15 -24 -30 -54z"/>
</g>
</svg>
